<svg xmlns="http://www.w3.org/2000/svg" width="32" height="32"><path d="M28.824219 0H3.175781C1.421875 0 0 1.421875 0 3.175781v25.648438C0 30.578125 1.421875 32 3.175781 32h25.648438C30.578125 32 32 30.578125 32 28.824219V3.175781C32 1.421875 30.578125 0 28.824219 0Zm1.492187 3.175781v6.929688h-8.421875V1.683594h6.929688c.820312.007812 1.484375.671875 1.492187 1.492187ZM11.789062 20.210938v-8.421876h8.421876v8.421876Zm8.421876 1.683593v8.421875h-8.421876v-8.421875Zm-10.105469-1.683593H1.683594v-8.421876h8.421875Zm1.683593-10.105469V1.683594h8.421876v8.421875Zm10.105469 1.683593h8.421875v8.421876h-8.421875ZM3.175781 1.683594h6.929688v8.421875H1.683594V3.175781c.007812-.820312.671875-1.484375 1.492187-1.492187ZM1.683594 28.824219v-6.929688h8.421875v8.421875H3.175781c-.820312-.007812-1.484375-.671875-1.492187-1.492187Zm27.140625 1.492187h-6.929688v-8.421875h8.421875v6.929688c-.007812.820312-.671875 1.484375-1.492187 1.492187Zm0 0" style="stroke:none;fill-rule:nonzero;fill:#000;fill-opacity:1"/><path d="M11.789062 11.789062h8.421876v8.421876h-8.421876ZM21.898438 11.785156h8.421874v8.421875h-8.421874Zm0 0" style="stroke:none;fill-rule:nonzero;fill:#dabc45;fill-opacity:1"/><path d="M11.789062 21.894531h8.421876v8.421875h-8.421876ZM1.679688 11.78125h8.417968v8.421875H1.679688ZM11.796875 1.699219h8.421875v8.417969h-8.421875ZM1.683594 28.824219v-6.929688h8.421875v8.421875H3.175781c-.820312-.007812-1.484375-.671875-1.492187-1.492187ZM28.824219 30.316406h-6.929688v-8.421875h8.421875v6.929688c-.007812.820312-.671875 1.484375-1.492187 1.492187ZM3.179688 1.699219h6.929687v8.417969H1.6875V3.191406c.003906-.824218.667969-1.488281 1.492188-1.492187ZM28.828125 1.675781h-6.929687v8.417969h8.421874V3.167969c-.003906-.824219-.667968-1.488281-1.492187-1.492188Zm0 0" style="stroke:none;fill-rule:nonzero;fill:#7bb677;fill-opacity:1"/></svg>